<?xml version="1.0" encoding="UTF-8" standalone="no"?>
<!DOCTYPE svg PUBLIC "-//W3C//DTD SVG 1.1//EN"
 "http://www.w3.org/Graphics/SVG/1.1/DTD/svg11.dtd">
<!-- Generated by graphviz version 8.0.5 (20230430.1635)
 -->
<!-- Pages: 1 -->
<svg width="276pt" height="252pt"
 viewBox="0.00 0.00 276.18 252.23" xmlns="http://www.w3.org/2000/svg" xmlns:xlink="http://www.w3.org/1999/xlink">
<g id="graph0" class="graph" transform="scale(1 1) rotate(0) translate(8.64 243.59)">
<!-- expr -->
<g id="node1" class="node">
<title>expr</title>
<polygon fill="white" stroke="none" stroke-width="0.5" points="191.2,-234.95 76.2,-234.95 76.2,-198.95 191.2,-198.95 191.2,-234.95"/>
<text text-anchor="middle" x="133.7" y="-212.28" font-family="monospace" font-size="14.00">fruits.apple</text>
</g>
<!-- condition -->
<g id="node2" class="node">
<title>condition</title>
<polygon fill="#cccccc" stroke="none" stroke-width="0.5" points="191.95,-161.95 75.45,-161.95 75.45,-125.95 191.95,-125.95 191.95,-161.95"/>
<text text-anchor="start" x="83.45" y="-145.65" font-family="'Source Sans 3'" font-weight="bold" font-size="14.00" fill="red">does the &#39;apple&#39;</text>
<text text-anchor="start" x="101.07" y="-131.65" font-family="'Source Sans 3'" font-weight="bold" font-size="14.00" fill="red">key exist?</text>
</g>
<!-- expr&#45;&gt;condition -->
<g id="edge1" class="edge">
<title>expr&#45;&gt;condition</title>
<path fill="none" stroke="black" d="M133.7,-199.13C133.7,-187.81 133.7,-172.95 133.7,-161.66"/>
</g>
<!-- yes -->
<g id="node3" class="node">
<title>yes</title>
<ellipse fill="white" stroke="black" stroke-width="0.5" cx="61.7" cy="-37.48" rx="61.7" ry="37.48"/>
<text text-anchor="middle" x="61.7" y="-46.68" font-family="'Source Sans 3'" font-size="14.00">return value</text>
<text text-anchor="middle" x="61.7" y="-31.68" font-family="'Source Sans 3'" font-size="14.00">stored at</text>
<text text-anchor="middle" x="61.7" y="-16.68" font-family="'Source Sans 3'" font-size="14.00">&#39;apple&#39; key</text>
</g>
<!-- condition&#45;&gt;yes -->
<g id="edge2" class="edge">
<title>condition&#45;&gt;yes</title>
<path fill="none" stroke="black" d="M122.13,-126.17C113.67,-113.9 101.82,-96.7 90.85,-80.78"/>
<polygon fill="black" stroke="black" points="93.43,-79.35 84.87,-73.1 87.66,-83.32 93.43,-79.35"/>
<text text-anchor="middle" x="119.2" y="-94.65" font-family="'Source Sans 3'" font-size="14.00">yes</text>
</g>
<!-- no -->
<g id="node4" class="node">
<title>no</title>
<ellipse fill="white" stroke="black" stroke-width="0.5" cx="205.7" cy="-37.48" rx="53.21" ry="26.87"/>
<text text-anchor="middle" x="205.7" y="-39.18" font-family="'Source Sans 3'" font-size="14.00">return</text>
<text text-anchor="middle" x="205.7" y="-24.18" font-family="'Source Sans 3'" font-size="14.00">undefined</text>
</g>
<!-- condition&#45;&gt;no -->
<g id="edge3" class="edge">
<title>condition&#45;&gt;no</title>
<path fill="none" stroke="black" d="M145.26,-126.17C155.44,-111.4 170.56,-89.46 183.13,-71.23"/>
<polygon fill="black" stroke="black" points="186.26,-73.84 189.06,-63.62 180.5,-69.87 186.26,-73.84"/>
<text text-anchor="middle" x="174.2" y="-94.65" font-family="'Source Sans 3'" font-size="14.00">no</text>
</g>
</g>
</svg>
