<?xml version="1.0" encoding="UTF-8" standalone="no"?>
<!DOCTYPE svg PUBLIC "-//W3C//DTD SVG 1.1//EN"
 "http://www.w3.org/Graphics/SVG/1.1/DTD/svg11.dtd">
<!-- Generated by graphviz version 8.0.5 (20230430.1635)
 -->
<!-- Pages: 1 -->
<svg width="167pt" height="183pt"
 viewBox="0.00 0.00 166.78 183.28" xmlns="http://www.w3.org/2000/svg" xmlns:xlink="http://www.w3.org/1999/xlink">
<g id="graph0" class="graph" transform="scale(1 1) rotate(0) translate(8.64 174.64)">
<!-- list -->
<g id="node1" class="node">
<title>list</title>
<polygon fill="white" stroke="black" stroke-width="0.5" points="0,-48.5 0,-117.5 59.5,-117.5 59.5,-48.5 0,-48.5"/>
<text text-anchor="middle" x="29.75" y="-100.2" font-family="'Source Sans 3'" font-size="14.00">&#39;apple&#39;</text>
<polyline fill="none" stroke="black" stroke-width="0.5" points="0,-94.5 59.5,-94.5"/>
<text text-anchor="middle" x="29.75" y="-77.2" font-family="'Source Sans 3'" font-size="14.00">&#39;berry&#39;</text>
<polyline fill="none" stroke="black" stroke-width="0.5" points="0,-71.5 59.5,-71.5"/>
<text text-anchor="middle" x="29.75" y="-54.2" font-family="'Source Sans 3'" font-size="14.00">&#39;cherry&#39;</text>
</g>
<!-- b0 -->
<g id="node2" class="node">
<title>b0</title>
<ellipse fill="white" stroke="black" stroke-width="0.5" cx="122.5" cy="-148" rx="27" ry="18"/>
<text text-anchor="start" x="118.75" y="-142.2" font-family="'Source Sans 3'" font-size="14.00">6</text>
</g>
<!-- list&#45;&gt;b0 -->
<g id="edge1" class="edge">
<title>list:l0&#45;&gt;b0</title>
<path fill="none" stroke="black" d="M59.5,-106C75.25,-106 89.97,-115.4 101.12,-125.31"/>
<polygon fill="black" stroke="black" points="98.28,-127.4 107.9,-131.84 103.15,-122.37 98.28,-127.4"/>
</g>
<!-- b1 -->
<g id="node3" class="node">
<title>b1</title>
<ellipse fill="white" stroke="black" stroke-width="0.5" cx="122.5" cy="-83" rx="27" ry="18"/>
<text text-anchor="start" x="115" y="-77.2" font-family="'Source Sans 3'" font-size="14.00">12</text>
</g>
<!-- list&#45;&gt;b1 -->
<g id="edge2" class="edge">
<title>list:l1&#45;&gt;b1</title>
<path fill="none" stroke="black" d="M59.5,-83C67.64,-83 76.38,-83 84.66,-83"/>
<polygon fill="black" stroke="black" points="84.56,-86.5 94.56,-83 84.56,-79.5 84.56,-86.5"/>
</g>
<!-- b2 -->
<g id="node4" class="node">
<title>b2</title>
<ellipse fill="yellow" stroke="black" stroke-width="0.5" cx="122.5" cy="-18" rx="27" ry="18"/>
<text text-anchor="start" x="115" y="-12.2" font-family="'Source Sans 3'" font-size="14.00">18</text>
</g>
<!-- list&#45;&gt;b2 -->
<g id="edge3" class="edge">
<title>list:l2&#45;&gt;b2</title>
<path fill="none" stroke="black" d="M59.5,-60C75.25,-60 89.97,-50.6 101.12,-40.69"/>
<polygon fill="black" stroke="black" points="103.15,-43.63 107.9,-34.16 98.28,-38.6 103.15,-43.63"/>
</g>
</g>
</svg>
