<?xml version="1.0" encoding="UTF-8" standalone="no"?>
<!DOCTYPE svg PUBLIC "-//W3C//DTD SVG 1.1//EN"
 "http://www.w3.org/Graphics/SVG/1.1/DTD/svg11.dtd">
<!-- Generated by graphviz version 8.0.5 (20230430.1635)
 -->
<!-- Pages: 1 -->
<svg width="328pt" height="231pt"
 viewBox="0.00 0.00 328.17 231.02" xmlns="http://www.w3.org/2000/svg" xmlns:xlink="http://www.w3.org/1999/xlink">
<g id="graph0" class="graph" transform="scale(1 1) rotate(0) translate(8.64 222.38)">
<!-- expr -->
<g id="node1" class="node">
<title>expr</title>
<polygon fill="white" stroke="none" stroke-width="0.5" points="224.94,-213.74 76.94,-213.74 76.94,-177.74 224.94,-177.74 224.94,-213.74"/>
<text text-anchor="middle" x="150.94" y="-191.07" font-family="monospace" font-size="14.00">fruits.apple = 3</text>
</g>
<!-- condition -->
<g id="node2" class="node">
<title>condition</title>
<polygon fill="#cccccc" stroke="none" stroke-width="0.5" points="209.19,-140.74 92.69,-140.74 92.69,-104.74 209.19,-104.74 209.19,-140.74"/>
<text text-anchor="start" x="100.69" y="-124.44" font-family="'Source Sans 3'" font-weight="bold" font-size="14.00" fill="red">does the &#39;apple&#39;</text>
<text text-anchor="start" x="118.31" y="-110.44" font-family="'Source Sans 3'" font-weight="bold" font-size="14.00" fill="red">key exist?</text>
</g>
<!-- expr&#45;&gt;condition -->
<g id="edge1" class="edge">
<title>expr&#45;&gt;condition</title>
<path fill="none" stroke="black" d="M150.94,-177.91C150.94,-166.6 150.94,-151.74 150.94,-140.45"/>
</g>
<!-- yes -->
<g id="node3" class="node">
<title>yes</title>
<ellipse fill="white" stroke="black" stroke-width="0.5" cx="65.94" cy="-26.87" rx="65.94" ry="26.87"/>
<text text-anchor="middle" x="65.94" y="-28.57" font-family="'Source Sans 3'" font-size="14.00">update value</text>
<text text-anchor="middle" x="65.94" y="-13.57" font-family="'Source Sans 3'" font-size="14.00">to 3</text>
</g>
<!-- condition&#45;&gt;yes -->
<g id="edge2" class="edge">
<title>condition&#45;&gt;yes</title>
<path fill="none" stroke="black" d="M135.74,-104.96C124.46,-92.5 108.73,-75.13 95.05,-60.02"/>
<polygon fill="black" stroke="black" points="98.02,-57.98 88.71,-52.91 92.83,-62.68 98.02,-57.98"/>
<text text-anchor="middle" x="129.44" y="-73.44" font-family="'Source Sans 3'" font-size="14.00">yes</text>
</g>
<!-- no -->
<g id="node4" class="node">
<title>no</title>
<ellipse fill="white" stroke="black" stroke-width="0.5" cx="235.94" cy="-26.87" rx="74.95" ry="26.87"/>
<text text-anchor="middle" x="235.94" y="-28.57" font-family="'Source Sans 3'" font-size="14.00">add &#39;apple&#39; key</text>
<text text-anchor="middle" x="235.94" y="-13.57" font-family="'Source Sans 3'" font-size="14.00">with value 3</text>
</g>
<!-- condition&#45;&gt;no -->
<g id="edge3" class="edge">
<title>condition&#45;&gt;no</title>
<path fill="none" stroke="black" d="M166.13,-104.96C177.33,-92.59 192.92,-75.37 206.53,-60.35"/>
<polygon fill="black" stroke="black" points="208.72,-63.03 212.84,-53.27 203.54,-58.33 208.72,-63.03"/>
<text text-anchor="middle" x="203.44" y="-73.44" font-family="'Source Sans 3'" font-size="14.00">no</text>
</g>
</g>
</svg>
